HIERARCHY
ROOT Hips
{
	OFFSET 47.716000 -34.127014 99.160095
	CHANNELS 6 Xposition Yposition Zposition Xrotation Yrotation Zrotation
	JOINT spine
	{
		OFFSET 0.000000 -0.477356 8.301041
		CHANNELS 3 Xrotation Yrotation Zrotation
		JOINT spine1
		{
			OFFSET 0.000000 0.000000 10.456497
			CHANNELS 3 Xrotation Yrotation Zrotation
			JOINT spine2
			{
				OFFSET 0.000000 0.000000 10.019203
				CHANNELS 3 Xrotation Yrotation Zrotation
				JOINT Neck
				{
					OFFSET 0.000000 -1.226418 25.723503
					CHANNELS 3 Xrotation Yrotation Zrotation
					JOINT Head
					{
						OFFSET 0.000000 0.000000 7.771744
						CHANNELS 3 Xrotation Yrotation Zrotation
						End Site
						{
							OFFSET 0.000000 6.203938 18.811996
						}
					}
				}
				JOINT RightShoulder
				{
					OFFSET -4.218800 0.587437 10.820000
					CHANNELS 3 Xrotation Yrotation Zrotation
					JOINT RightArm
					{
						OFFSET 0.000000 -0.000004 14.191406
						CHANNELS 3 Xrotation Yrotation Zrotation
						JOINT RightArmRoll
						{
							OFFSET 0.000000 0.000000 7.164093
							CHANNELS 3 Xrotation Yrotation Zrotation
							JOINT RightForeArm
							{
								OFFSET 0.000000 -0.000004 20.866501
								CHANNELS 3 Xrotation Yrotation Zrotation
								JOINT RightForeArmRoll
								{
									OFFSET 0.000000 0.000000 8.039215
									CHANNELS 3 Xrotation Yrotation Zrotation
									JOINT RightHand
									{
										OFFSET 0.000000 -0.000004 16.132996
										CHANNELS 3 Xrotation Yrotation Zrotation
										End Site
										{
											OFFSET 0.000000 0.000000 0.100006
										}
									}
								}
							}
						}
					}
				}
				JOINT LeftShoulder
				{
					OFFSET 4.218800 0.587437 10.820000
					CHANNELS 3 Xrotation Yrotation Zrotation
					JOINT LeftArm
					{
						OFFSET 0.000000 -0.000004 14.191406
						CHANNELS 3 Xrotation Yrotation Zrotation
						JOINT LeftArmRoll
						{
							OFFSET 0.000000 0.000000 7.164093
							CHANNELS 3 Xrotation Yrotation Zrotation
							JOINT LeftForeArm
							{
								OFFSET 0.000000 -0.000004 20.866501
								CHANNELS 3 Xrotation Yrotation Zrotation
								JOINT LeftForeArmRoll
								{
									OFFSET 0.000000 0.000000 8.039215
									CHANNELS 3 Xrotation Yrotation Zrotation
									JOINT LeftHand
									{
										OFFSET 0.000000 -0.000004 16.132996
										CHANNELS 3 Xrotation Yrotation Zrotation
										End Site
										{
											OFFSET 0.000000 0.000000 0.100006
										}
									}
								}
							}
						}
					}
				}
			}
		}
	}
	JOINT RightUpLeg
	{
		OFFSET -7.357731 1.131821 -1.349213
		CHANNELS 3 Xrotation Yrotation Zrotation
		JOINT RightUpLegRoll
		{
			OFFSET 0.000000 -0.000004 18.916801
			CHANNELS 3 Xrotation Yrotation Zrotation
			JOINT RightLeg
			{
				OFFSET 0.000000 0.000004 -23.425598
				CHANNELS 3 Xrotation Yrotation Zrotation
				JOINT RightLegRoll
				{
					OFFSET 0.000000 -0.000004 23.502304
					CHANNELS 3 Xrotation Yrotation Zrotation
					JOINT RightFoot
					{
						OFFSET 0.000000 -0.000004 19.561714
						CHANNELS 3 Xrotation Yrotation Zrotation
						JOINT RightToeBase
						{
							OFFSET 0.000000 -0.000004 16.352600
							CHANNELS 3 Xrotation Yrotation Zrotation
							End Site
							{
								OFFSET 0.006931 0.912838 7.919434
							}
						}
					}
				}
			}
		}
	}
	JOINT LeftUpLeg
	{
		OFFSET 7.357731 1.131821 -1.349213
		CHANNELS 3 Xrotation Yrotation Zrotation
		JOINT LeftUpLegRoll
		{
			OFFSET 0.000000 -0.000004 18.916901
			CHANNELS 3 Xrotation Yrotation Zrotation
			JOINT LeftLeg
			{
				OFFSET 0.000000 -0.000004 23.425507
				CHANNELS 3 Xrotation Yrotation Zrotation
				JOINT LeftLegRoll
				{
					OFFSET 0.000000 -0.000004 23.719498
					CHANNELS 3 Xrotation Yrotation Zrotation
					JOINT LeftFoot
					{
						OFFSET 0.000000 -0.000004 19.344406
						CHANNELS 3 Xrotation Yrotation Zrotation
						JOINT LeftToeBase
						{
							OFFSET 0.000000 -0.000004 16.352600
							CHANNELS 3 Xrotation Yrotation Zrotation
							End Site
							{
								OFFSET -0.031063 0.912838 7.919434
							}
						}
					}
				}
			}
		}
	}
}
MOTION
Frames: 7
Frame Time: 0.041667
47.805302 -13.996309 75.487091 13.167061 0.929878 -0.849415 2.016485 -0.611066 0.244531 8.038879 -1.207896 0.506916 9.684074 -1.201744 0.521373 -6.633755 6.975145 0.850057 -13.206839 -3.383757 -0.669678 -10.694530 -56.677275 -12.501796 133.260747 -47.846886 133.505009 -0.000001 0.000011 0.000002 46.622704 -11.933631 3.259562 0.000005 -0.000001 -3.008020 -4.999830 -7.999197 0.000047 -5.088752 59.946009 6.103062 -52.797379 119.342966 53.069702 -0.000001 -0.000001 -0.000000 47.206473 8.907147 -2.353488 0.000008 -0.000010 2.999989 -4.999748 7.999287 -0.000025 -69.104576 -167.493505 7.392817 179.999991 0.000003 -1.012994 102.124155 -4.014315 -4.966503 -0.000008 0.000001 1.697290 82.614615 7.325331 -0.920890 28.271688 -7.346927 0.353577 -70.281670 162.970308 -5.407253 -0.000002 -0.000004 -0.865831 -80.242975 2.255591 3.176224 -0.000004 0.000001 -2.020938 80.676917 -6.397575 -2.841392 30.763227 7.287855 -1.070255 
47.803600 -14.085016 75.671692 13.126748 0.927860 -0.820822 2.005952 -0.608903 0.243655 8.017778 -1.203840 0.505507 9.662981 -1.197708 0.519907 -6.646125 6.941908 0.841608 -13.182401 -3.348072 -0.670566 -10.682422 -56.715678 -12.489457 133.144989 -47.804439 133.584184 -0.000000 0.000011 0.000001 46.134079 -11.947915 3.239243 0.000006 -0.000001 -3.008020 -4.999834 -7.999196 0.000047 -5.087634 59.953461 6.102425 -52.865917 119.405435 53.031221 -0.000000 0.000000 -0.000000 46.787988 8.955291 -2.352628 0.000013 -0.000010 2.999990 -4.999752 7.999287 -0.000028 -68.771747 -167.509993 7.366007 179.999991 0.000005 -1.010002 102.437449 -4.083469 -4.993861 -0.000007 0.000002 1.685499 82.564358 7.326485 -0.914883 28.294619 -7.346822 0.356556 -69.945775 163.017177 -5.401791 -0.000002 -0.000006 -0.864503 -79.922639 2.324571 3.215725 -0.000005 0.000002 -2.004822 80.618970 -6.399565 -2.838517 30.791207 7.287564 -1.071396 
47.789600 -14.163622 75.856491 13.086334 0.925449 -0.792080 1.995270 -0.606688 0.242694 7.996414 -1.199714 0.503985 9.641610 -1.193604 0.518325 -6.659446 6.906306 0.832651 -13.154818 -3.308467 -0.671371 -10.669671 -56.752141 -12.476224 133.031171 -47.760555 133.666078 -0.000000 0.000011 0.000001 45.642821 -11.960349 3.217805 0.000006 -0.000001 -3.008021 -4.999828 -7.999197 0.000047 -5.085769 59.961356 6.100943 -52.932890 119.467180 52.991032 -0.000000 0.000000 0.000000 46.368143 9.002783 -2.350976 0.000010 -0.000009 2.999990 -4.999754 7.999289 -0.000027 -68.438154 -167.526345 7.339261 179.999991 0.000005 -1.007995 102.752826 -4.152816 -5.020712 -0.000008 0.000001 1.673640 82.512469 7.327811 -0.908959 28.317754 -7.346709 0.359576 -69.608842 163.065125 -5.396649 -0.000002 -0.000005 -0.863196 -79.600206 2.393871 3.254693 -0.000003 0.000002 -1.988581 80.559383 -6.401655 -2.835442 30.819596 7.287285 -1.072445 
47.788101 -14.256512 76.047585 13.045618 0.922733 -0.763414 1.984462 -0.604433 0.241686 7.974758 -1.195529 0.502408 9.619952 -1.189451 0.516690 -6.672949 6.869150 0.823234 -13.124502 -3.266311 -0.672218 -10.656459 -56.787111 -12.462387 132.917571 -47.716542 133.748819 -0.000000 0.000012 0.000001 45.148804 -11.970800 3.195208 0.000003 -0.000001 -3.008021 -4.999831 -7.999197 0.000047 -5.083091 59.969771 6.098556 -52.999956 119.527750 52.950550 0.000000 -0.000000 -0.000000 45.947325 9.049483 -2.348436 0.000009 -0.000010 2.999989 -4.999758 7.999286 -0.000025 -68.103850 -167.542983 7.312562 179.999991 0.000004 -1.005003 103.070341 -4.221940 -5.047137 -0.000007 0.000002 1.661729 82.459030 7.329238 -0.903126 28.340898 -7.346592 0.362603 -69.271437 163.113400 -5.390279 -0.000001 -0.000005 -0.861912 -79.275677 2.463451 3.293320 -0.000002 0.000002 -1.972260 80.498274 -6.403826 -2.832364 30.848191 7.287031 -1.073476 
47.780495 -14.327517 76.241791 13.004705 0.919805 -0.735056 1.973490 -0.602148 0.240669 7.952787 -1.191295 0.500840 9.597991 -1.185238 0.515061 -6.685929 6.831272 0.813410 -13.091973 -3.222941 -0.673228 -10.642960 -56.821003 -12.448158 132.803835 -47.672210 133.832543 -0.000000 0.000011 0.000001 44.651392 -11.979159 3.171237 0.000003 -0.000001 -3.008021 -4.999828 -7.999197 0.000046 -5.079531 59.978623 6.095183 -53.068435 119.586463 52.910870 -0.000000 -0.000000 -0.000000 45.525629 9.095294 -2.344896 0.000007 -0.000009 2.999989 -4.999756 7.999289 -0.000026 -67.768857 -167.559826 7.285345 179.999991 0.000005 -1.001997 103.390076 -4.291136 -5.073053 -0.000005 0.000001 1.649781 82.404129 7.330716 -0.897399 28.364031 -7.346479 0.365653 -68.933015 163.162141 -5.384226 -0.000001 -0.000004 -0.860644 -78.949310 2.533174 3.331383 0.000001 0.000002 -1.955869 80.435839 -6.406038 -2.829170 30.876987 7.286762 -1.074556 
47.776299 -14.419622 76.429588 12.963286 0.916757 -0.707234 1.962354 -0.599842 0.239685 7.930504 -1.187021 0.499341 9.575704 -1.180988 0.513501 -6.697631 6.793510 0.803237 -13.057759 -3.179721 -0.674521 -10.629459 -56.854392 -12.433909 132.690631 -47.626820 133.918631 -0.000000 0.000012 0.000002 44.150455 -11.985193 3.145765 0.000004 -0.000001 -3.008020 -4.999829 -7.999196 0.000048 -5.075026 59.988117 6.090774 -53.136915 119.643918 52.869916 0.000000 0.000000 -0.000000 45.103438 9.140157 -2.340365 0.000008 -0.000009 2.999989 -4.999753 7.999287 -0.000026 -67.433139 -167.577735 7.258840 179.999991 0.000007 -0.999005 103.711819 -4.360167 -5.097514 -0.000009 0.000002 1.637800 82.347773 7.332232 -0.891669 28.386959 -7.346366 0.368694 -68.594142 163.210567 -5.377155 -0.000002 -0.000005 -0.859395 -78.621399 2.602931 3.368891 -0.000001 0.000002 -1.939452 80.372045 -6.408368 -2.825962 30.905578 7.286511 -1.075725 
47.769901 -14.509214 76.642883 12.921570 0.913679 -0.680178 1.951055 -0.597527 0.238772 7.907885 -1.182728 0.497974 9.553079 -1.176717 0.512073 -6.707347 6.756693 0.792774 -13.022265 -3.138002 -0.676207 -10.616154 -56.887874 -12.419888 132.576731 -47.580805 134.006085 -0.000000 0.000012 0.000001 43.645568 -11.988805 3.118685 0.000004 -0.000001 -3.008020 -4.999829 -7.999197 0.000047 -5.069529 59.998253 6.085246 -53.205517 119.700185 52.827360 0.000001 0.000001 0.000000 44.681038 9.183793 -2.334616 0.000008 -0.000009 2.999990 -4.999757 7.999289 -0.000026 -67.096917 -167.596259 7.231395 179.999991 0.000005 -0.996000 104.035809 -4.428579 -5.121576 -0.000009 0.000001 1.625799 82.290003 7.333809 -0.886046 28.409793 -7.346248 0.371726 -68.254415 163.258938 -5.370392 -0.000003 -0.000005 -0.858162 -78.292034 2.672665 3.405988 -0.000002 0.000002 -1.923031 80.307261 -6.410680 -2.822607 30.934074 7.286245 -1.077076 
